<svg class="w-6 h-6" width="24" height="24" viewBox="0 0 24 24" fill="none" xmlns="http://www.w3.org/2000/svg"><path d="M18 2C18.3344 2 18.6466 2.16711 18.832 2.44531L22.832 8.44531C23.0696 8.80168 23.0539 9.2698 22.793 9.60938L12.793 22.6094C12.6037 22.8555 12.3105 23 12 23C11.6895 23 11.3963 22.8555 11.207 22.6094L1.20705 9.60938C0.946087 9.2698 0.930404 8.80168 1.16798 8.44531L5.16798 2.44531L5.24318 2.34668C5.43177 2.12817 5.70734 2 6.00002 2H18ZM3.22951 8.95801L12 20.3594L20.7695 8.95801L17.4649 4H6.53517L3.22951 8.95801Z" fill="#686583" style="fill-opacity:1;"/><path d="M12.5527 2.10547C13.0158 1.87392 13.5724 2.03575 13.8437 2.46387L13.8945 2.55274L16.8945 8.55274C16.9952 8.75403 17.0244 8.98253 16.9795 9.20118L16.956 9.29395L12.956 22.294C12.8269 22.7135 12.439 23 12 23C11.561 23 11.173 22.7135 11.0439 22.294L7.04394 9.29395C6.96838 9.04821 6.99049 8.78269 7.10546 8.55274L10.1055 2.55274L10.1562 2.46387C10.4276 2.03575 10.9842 1.87392 11.4473 2.10547C11.9104 2.33704 12.1153 2.87959 11.9355 3.35352L11.8945 3.44727L9.07324 9.0879L12 18.5986L14.9258 9.0879L12.1055 3.44727L12.0644 3.35352C11.8847 2.87959 12.0896 2.33704 12.5527 2.10547Z" fill="#686583" style="fill-opacity:1;"/><path d="M22 8C22.5523 8 23 8.44772 23 9C23 9.55228 22.5523 10 22 10H2C1.44772 10 1 9.55228 1 9C1 8.44772 1.44772 8 2 8H22Z" fill="#686583" style="fill-opacity:1;"/></svg>